#N canvas 888 246 593 391 10;
#X obj 1 0 cnv 10 100 60 empty empty MIDI-CLOCK 10 10 1 10 -228856
-162280 0;
#X obj 80 40 tgl 15 0 empty empty empty 17 7 0 10 -262144 -1 -1 1 1
;
#X obj 81 240 midiout;
#X obj 9 130 select 0 1;
#X msg 81 191 252;
#X msg 119 191 250;
#X msg 156 191 248;
#X obj 80 130 metro 20.8333;
#X floatatom 64 20 5 0 0 0 - - -;
#X text 4 39 Start/Stop >;
#X text 30 20 BPM >;
#X obj 6 19 bng 15 50 10 0 empty empty empty 17 7 0 10 -262144 -1 -1
;
#X obj 155 33 expr (60000/$f1);
#X obj 155 78 / 24;
#X floatatom 155 101 5 0 0 0 - - -;
#X floatatom 155 56 5 0 0 0 - - -;
#X obj 90 101 metro 500;
#X msg 203 6 120;
#X obj 203 -15 loadbang;
#X connect 1 0 3 0;
#X connect 1 0 7 0;
#X connect 1 0 16 0;
#X connect 3 0 4 0;
#X connect 3 1 5 0;
#X connect 4 0 2 0;
#X connect 5 0 2 0;
#X connect 6 0 2 0;
#X connect 7 0 6 0;
#X connect 8 0 12 0;
#X connect 12 0 15 0;
#X connect 13 0 14 0;
#X connect 14 0 7 1;
#X connect 15 0 16 1;
#X connect 15 0 13 0;
#X connect 16 0 11 0;
#X connect 17 0 8 0;
#X connect 18 0 17 0;
#X coords 0 -1 1 1 100 60 1 0 0;
