#N canvas 739 210 604 391 10;
#X obj 1 0 cnv 10 100 60 empty empty MIDI-CLOCK 10 10 1 10 -228856
-162280 0;
#X obj 80 40 tgl 15 0 empty empty empty 17 7 0 10 -262144 -1 -1 0 1
;
#X obj 81 205 midiout;
#X obj 9 95 select 0 1;
#X msg 81 156 252;
#X msg 119 156 250;
#X msg 156 156 248;
#X obj 80 95 metro 20.8333;
#X floatatom 155 54 5 0 0 0 - - -;
#X obj 155 33 expr (60000/$f1/24);
#X floatatom 64 20 5 0 0 0 - - -;
#X text 4 39 Start/Stop >;
#X text 30 20 BPM >;
#X connect 1 0 3 0;
#X connect 1 0 7 0;
#X connect 3 0 4 0;
#X connect 3 1 5 0;
#X connect 4 0 2 0;
#X connect 5 0 2 0;
#X connect 6 0 2 0;
#X connect 7 0 6 0;
#X connect 8 0 7 1;
#X connect 9 0 8 0;
#X connect 10 0 9 0;
#X coords 0 -1 1 1 100 60 1 0 0;
