#N canvas 340 176 762 559 10;
#X floatatom 142 113 5 0 0 0 - - -;
#X floatatom 124 138 5 0 0 0 - - -;
#X obj 109 85 notein;
#X obj 109 247 ctlout;
#X msg 125 217 43;
#X obj 205 247 noteout;
#X obj 179 217 makenote;
#X floatatom 224 193 5 0 0 0 - - -;
#X floatatom 109 164 5 0 0 0 - - -;
#X obj 419 85 ctlin;
#X floatatom 419 163 5 0 0 0 - - -;
#X floatatom 433 137 5 0 0 0 - - -;
#X floatatom 446 111 5 0 0 0 - - -;
#X obj 419 194 ctlout;
#X text 46 138 velocity;
#X text 51 112 channel;
#X text 70 164 note;
#X text 374 164 value;
#X text 362 111 channel;
#X text 348 138 control #;
#X text 63 216 Speed;
#X text 50 49 Note Value to Speed Control;
#X text 345 49 Pipe trough other commands;
#X connect 0 0 5 2;
#X connect 0 0 3 2;
#X connect 1 0 6 1;
#X connect 2 0 8 0;
#X connect 2 0 4 0;
#X connect 2 1 1 0;
#X connect 2 2 0 0;
#X connect 4 0 3 1;
#X connect 6 0 5 0;
#X connect 6 1 5 1;
#X connect 7 0 6 2;
#X connect 8 0 6 0;
#X connect 8 0 3 0;
#X connect 9 0 10 0;
#X connect 9 1 11 0;
#X connect 9 2 12 0;
#X connect 10 0 13 0;
#X connect 11 0 13 1;
#X connect 12 0 13 2;
